<?xml version="1.0" standalone="no"?>
<!DOCTYPE svg PUBLIC "-//W3C//DTD SVG 20010904//EN"
 "http://www.w3.org/TR/2001/REC-SVG-20010904/DTD/svg10.dtd">
<svg version="1.0" xmlns="http://www.w3.org/2000/svg"
 width="920.000000pt" height="985.000000pt" viewBox="0 0 920.000000 985.000000"
 preserveAspectRatio="xMidYMid meet">
<metadata>
Created by potrace 1.16, written by Peter Selinger 2001-2019
</metadata>
<g transform="translate(0.000000,985.000000) scale(0.100000,-0.100000)"
fill="#000000" stroke="none">
<path d="M6605 9838 c-141 -26 -290 -142 -358 -276 -46 -93 -61 -166 -54 -272
6 -105 27 -164 107 -305 816 -1449 1179 -3122 1035 -4768 -100 -1136 -440
-2270 -970 -3232 -132 -239 -142 -260 -160 -330 -67 -263 83 -537 344 -627 51
-18 88 -23 166 -23 119 0 202 25 295 87 103 69 143 126 328 473 537 1012 892
2157 1021 3295 70 612 79 1285 25 1885 -112 1264 -483 2501 -1083 3610 -171
316 -217 373 -356 440 -107 52 -220 66 -340 43z"/>
<path d="M4647 8865 c-174 -48 -313 -184 -373 -365 -22 -69 -23 -203 -1 -283
8 -31 54 -128 101 -215 206 -380 343 -693 471 -1077 163 -490 249 -900 306
-1465 20 -201 23 -735 5 -970 -42 -566 -138 -1047 -311 -1565 -126 -380 -262
-691 -470 -1075 -118 -219 -140 -310 -111 -450 40 -189 167 -339 341 -402 73
-26 209 -35 288 -18 140 29 272 128 356 271 75 124 314 604 384 770 410 972
607 1973 591 3006 -14 960 -199 1852 -569 2748 -73 177 -314 669 -397 810 -90
152 -201 242 -344 279 -74 19 -200 19 -267 1z"/>
<path d="M2806 7979 c-83 -20 -170 -71 -242 -143 -107 -108 -154 -220 -154
-372 0 -111 17 -159 135 -389 279 -540 431 -1039 501 -1640 22 -189 26 -708 6
-895 -68 -648 -260 -1268 -557 -1790 -58 -103 -85 -195 -85 -292 0 -155 46
-266 154 -374 108 -107 220 -154 371 -154 219 0 368 101 499 337 338 613 563
1312 650 2018 42 344 52 831 22 1150 -74 789 -283 1489 -654 2185 -116 217
-217 311 -383 355 -60 16 -202 18 -263 4z"/>
<path d="M1009 7030 c-325 -49 -529 -395 -416 -702 13 -35 49 -103 81 -153
126 -197 242 -470 300 -706 49 -201 60 -306 60 -554 -1 -201 -4 -248 -27 -375
-56 -314 -174 -618 -345 -886 -88 -137 -116 -260 -92 -401 64 -380 494 -559
820 -341 71 47 120 108 213 261 252 416 416 899 472 1391 19 164 21 509 5 671
-44 448 -171 874 -375 1263 -94 178 -191 328 -251 387 -113 111 -289 168 -445
145z"/>
</g>
</svg>
